<?xml version="1.0" standalone="no"?>
<!DOCTYPE svg PUBLIC "-//W3C//DTD SVG 20010904//EN"
 "http://www.w3.org/TR/2001/REC-SVG-20010904/DTD/svg10.dtd">
<svg version="1.0" xmlns="http://www.w3.org/2000/svg"
 width="1280.000000pt" height="853.000000pt" viewBox="0 0 1280.000000 853.000000"
 preserveAspectRatio="xMidYMid meet">
<metadata>
Created by potrace 1.15, written by Peter Selinger 2001-2017
</metadata>
<g transform="translate(0.000000,853.000000) scale(0.100000,-0.100000)"
fill="#ffffff" stroke="none">
<path d="M316 8319 c-65 -80 -66 -67 13 -166 l41 -53 165 0 164 0 55 71 c48
60 54 73 43 88 -6 9 -32 42 -56 74 l-43 57 -163 0 -162 0 -57 -71z"/>
<path d="M1273 8320 l-63 -66 0 -114 0 -113 61 -69 62 -70 -62 -62 -61 -62 0
-119 0 -119 61 -62 62 -63 -62 -68 -61 -68 0 -114 0 -114 64 -67 65 -67 65 66
66 67 0 113 0 113 -62 69 -62 70 62 62 62 63 0 118 0 118 -62 64 -61 64 61 69
62 69 0 114 0 114 -67 65 -68 65 -62 -66z"/>
<path d="M1905 8318 c-39 -48 -55 -76 -49 -84 5 -7 29 -39 54 -73 l45 -60 167
-1 167 0 55 71 55 71 -56 74 -55 74 -163 0 -162 0 -58 -72z"/>
<path d="M2863 8320 l-63 -66 0 -116 0 -115 62 -67 61 -67 -61 -62 -62 -63 0
-119 0 -119 62 -63 61 -62 -61 -67 -62 -67 0 -115 0 -115 64 -67 65 -67 65 66
66 67 0 115 0 115 -31 30 c-17 16 -45 46 -61 67 l-31 39 62 62 61 62 0 116 0
117 -61 66 -61 65 40 47 c22 27 49 57 61 67 19 17 21 30 21 135 l0 117 -67 65
-68 65 -62 -66z"/>
<path d="M3545 8328 c-27 -35 -52 -68 -57 -74 -5 -7 12 -38 47 -83 l56 -71
164 0 164 0 56 71 57 70 -57 75 -57 74 -163 0 -162 0 -48 -62z"/>
<path d="M4496 8321 l-66 -67 0 -115 c0 -105 2 -118 21 -135 12 -10 39 -40 61
-67 l40 -47 -61 -65 -61 -66 0 -117 0 -116 62 -63 61 -62 -40 -48 c-23 -26
-50 -57 -62 -67 -19 -17 -21 -30 -21 -135 l0 -115 66 -67 65 -66 65 67 64 67
0 114 0 114 -61 68 -62 68 62 63 61 62 0 119 0 119 -61 62 -62 63 62 68 61 68
0 114 0 114 -64 67 -65 67 -65 -66z"/>
<path d="M5127 8318 c-62 -81 -63 -72 8 -160 l45 -58 165 0 164 0 55 71 c48
60 54 73 43 88 -6 9 -32 42 -56 74 l-43 57 -163 0 -163 0 -55 -72z"/>
<path d="M6705 8323 c-27 -36 -52 -70 -53 -75 -2 -4 20 -40 50 -78 l53 -70
166 0 166 0 47 61 c26 33 50 67 53 74 2 8 -19 46 -49 84 l-53 70 -165 0 -165
0 -50 -66z"/>
<path d="M7661 8323 l-61 -68 0 -120 0 -119 62 -63 62 -63 -62 -63 -62 -63 0
-119 0 -119 62 -63 62 -63 -62 -63 -62 -63 0 -119 0 -120 61 -68 62 -69 63 63
64 63 0 126 0 126 -59 58 -60 59 60 67 59 67 0 117 0 118 -60 66 -61 66 61 61
60 61 0 125 0 125 -64 63 -63 63 -62 -69z"/>
<path d="M8293 8320 c-29 -37 -53 -72 -53 -76 0 -4 23 -38 52 -76 l52 -68 166
0 166 0 53 70 c29 38 51 73 49 78 -1 5 -25 39 -53 75 l-50 66 -165 0 -165 0
-52 -69z"/>
<path d="M9252 8324 l-62 -67 0 -121 0 -120 62 -63 62 -63 -62 -63 -62 -63 0
-118 0 -118 60 -66 61 -66 -61 -61 -60 -61 0 -120 0 -121 62 -67 61 -67 64 63
63 62 0 126 0 126 -60 59 -59 58 59 68 60 67 0 118 0 119 -62 63 -61 63 61 62
62 63 0 125 0 125 -63 62 -64 63 -61 -67z"/>
<path d="M9919 8333 c-24 -32 -49 -65 -56 -74 -10 -14 -4 -28 43 -88 l55 -71
167 1 167 0 53 70 c33 42 50 74 46 82 -5 6 -30 40 -57 75 l-49 62 -163 0 -163
0 -43 -57z"/>
<path d="M10867 8322 l-67 -68 0 -115 0 -115 51 -49 c79 -78 79 -76 10 -153
l-61 -67 0 -113 0 -114 61 -63 c70 -73 70 -71 -10 -150 l-51 -49 0 -116 0
-116 68 -66 67 -67 63 69 62 69 0 116 0 117 -62 64 -62 65 62 62 62 63 0 119
0 119 -62 63 -62 62 62 65 62 64 0 119 -1 118 -62 67 -63 68 -67 -68z"/>
<path d="M11509 8333 c-24 -32 -49 -65 -56 -74 -10 -14 -4 -28 43 -88 l55 -71
167 1 167 0 53 70 53 71 -56 74 -55 74 -164 0 -164 0 -43 -57z"/>
<path d="M12456 8321 l-66 -67 0 -115 0 -115 31 -30 c17 -16 44 -46 61 -67
l30 -37 -61 -66 -61 -67 0 -116 0 -117 60 -59 c33 -33 60 -63 60 -67 0 -4 -27
-36 -60 -71 l-60 -65 0 -113 0 -113 66 -67 66 -67 64 67 63 66 1 117 0 117
-62 66 -61 66 61 62 62 63 0 119 0 119 -62 63 -61 62 61 66 62 66 0 117 -1
117 -63 66 -64 67 -66 -67z"/>
<path d="M6082 8317 l-62 -63 0 -113 0 -113 62 -70 61 -69 -61 -62 -62 -63 0
-119 0 -119 62 -63 61 -62 -61 -69 -62 -70 0 -113 0 -113 66 -67 65 -66 65 67
64 67 0 113 0 113 -61 69 -62 70 62 62 61 62 0 119 0 119 -61 62 -62 62 62 70
61 69 0 114 0 115 -63 62 c-34 34 -65 62 -68 62 -2 0 -33 -28 -67 -63z"/>
<path d="M186 8165 l-56 -78 0 -144 0 -144 55 -74 c30 -41 55 -77 55 -80 0 -3
-25 -39 -55 -80 l-55 -74 0 -144 0 -144 56 -77 c31 -43 58 -75 60 -73 3 2 29
37 59 77 l55 74 0 143 0 144 -55 73 c-30 40 -55 76 -55 81 0 5 25 41 55 81
l55 73 0 143 0 143 -51 70 c-28 39 -54 74 -58 78 -5 5 -34 -26 -65 -68z"/>
<path d="M767 8163 l-57 -77 0 -143 0 -144 55 -73 c30 -40 55 -76 55 -81 0 -5
-25 -41 -55 -81 l-55 -73 0 -143 0 -143 51 -70 c28 -39 54 -74 58 -78 4 -4 33
26 64 67 l57 75 0 147 0 147 -55 73 c-30 40 -55 76 -55 79 0 3 25 39 55 79
l55 73 0 147 0 147 -56 74 c-31 41 -57 75 -58 75 -1 0 -28 -35 -59 -77z"/>
<path d="M1776 8166 l-56 -75 0 -147 0 -147 55 -73 c30 -40 55 -76 55 -79 0
-3 -25 -39 -55 -79 l-55 -73 0 -147 0 -147 56 -75 c31 -41 59 -73 61 -71 2 2
28 37 58 77 l55 74 0 143 0 144 -55 73 c-30 40 -55 76 -55 81 0 5 25 41 55 81
l55 73 0 144 0 143 -55 74 c-30 40 -56 75 -58 77 -2 2 -30 -30 -61 -71z"/>
<path d="M2356 8163 l-56 -77 0 -143 0 -143 55 -75 c30 -40 55 -77 55 -80 0
-3 -25 -40 -55 -80 l-55 -75 0 -143 0 -143 56 -77 c30 -42 57 -77 59 -77 2 0
29 34 59 76 l56 77 0 144 0 144 -55 74 c-30 41 -55 77 -55 80 0 3 25 39 55 80
l55 74 0 144 0 144 -56 77 c-30 42 -57 76 -59 76 -2 0 -29 -35 -59 -77z"/>
<path d="M3406 8163 l-56 -78 0 -143 0 -143 55 -73 c30 -40 55 -76 55 -81 0
-5 -25 -41 -55 -81 l-55 -73 0 -143 0 -143 51 -70 c28 -39 54 -74 58 -78 5 -5
34 26 65 68 l56 78 0 144 0 144 -55 74 c-30 41 -55 77 -55 80 0 3 25 39 55 80
l55 74 0 144 0 144 -56 77 c-30 42 -57 76 -59 76 -1 0 -28 -35 -59 -77z"/>
<path d="M3987 8163 l-57 -77 0 -141 0 -141 55 -76 c30 -42 55 -79 55 -83 0
-4 -25 -41 -55 -82 l-55 -76 0 -141 0 -142 55 -74 c30 -40 56 -75 59 -77 2 -3
32 33 65 78 l61 83 0 132 0 132 -43 58 c-87 119 -86 99 -17 194 l60 83 0 131
0 132 -60 82 c-33 45 -62 82 -63 82 -2 0 -29 -35 -60 -77z"/>
<path d="M4996 8164 l-56 -77 0 -143 0 -144 55 -75 c30 -40 55 -77 55 -80 0
-3 -25 -40 -55 -80 l-55 -75 0 -143 0 -143 56 -77 c30 -42 57 -77 59 -77 2 0
29 35 59 77 l56 77 0 143 0 143 -55 75 c-30 40 -55 77 -55 80 0 3 25 40 55 80
l55 75 0 144 0 143 -56 77 c-30 42 -57 76 -59 76 -2 0 -29 -34 -59 -76z"/>
<path d="M5577 8163 l-57 -77 0 -142 0 -141 55 -76 c30 -41 55 -78 55 -82 0
-4 -25 -41 -55 -82 l-55 -76 0 -141 0 -142 55 -74 c30 -40 56 -75 58 -77 2 -2
30 31 62 73 l57 76 -1 146 -2 146 -54 73 c-30 40 -55 75 -55 78 0 3 25 38 55
78 l54 73 2 146 1 146 -57 76 c-32 42 -58 76 -59 76 -1 0 -28 -35 -59 -77z"/>
<path d="M6568 8159 l-58 -79 0 -136 0 -137 58 -78 c31 -43 60 -78 63 -79 3 0
31 35 62 79 l57 78 0 138 0 138 -57 78 c-32 43 -60 78 -63 78 -3 0 -31 -36
-62 -80z"/>
<path d="M7150 8159 l-60 -81 0 -134 0 -133 58 -80 c31 -44 60 -80 63 -81 4 0
32 35 63 77 l56 78 0 139 0 139 -57 78 c-31 44 -58 79 -60 79 -2 0 -30 -36
-63 -81z"/>
<path d="M8158 8159 l-58 -80 0 -135 0 -135 57 -80 c32 -43 60 -79 64 -79 3 0
31 36 62 79 l57 80 0 137 0 137 -57 78 c-32 43 -60 78 -63 78 -3 0 -31 -36
-62 -80z"/>
<path d="M8741 8160 l-61 -82 0 -134 0 -134 58 -80 c31 -44 60 -78 64 -77 4 1
32 35 63 76 l55 75 0 139 0 140 -52 71 c-28 39 -55 75 -59 80 -4 4 -35 -29
-68 -74z"/>
<path d="M9777 8163 l-57 -77 0 -142 0 -141 55 -76 c30 -41 55 -78 55 -82 0
-4 -25 -41 -55 -82 l-55 -76 0 -141 0 -142 55 -74 c30 -40 56 -75 58 -77 3 -2
32 33 66 78 l61 83 0 132 0 132 -43 58 c-87 119 -86 99 -17 194 l60 83 0 132
0 131 -56 75 c-30 41 -58 77 -62 81 -5 5 -34 -27 -65 -69z"/>
<path d="M10357 8161 l-57 -80 0 -139 0 -138 55 -75 c31 -41 59 -75 63 -76 4
-1 33 33 65 77 l57 80 0 133 0 134 -57 81 c-32 45 -60 81 -63 82 -3 0 -31 -36
-63 -79z"/>
<path d="M11367 8163 l-57 -77 0 -143 0 -144 55 -73 c30 -40 55 -76 55 -81 0
-5 -25 -41 -55 -81 l-55 -73 0 -144 0 -143 55 -74 c30 -40 56 -75 58 -77 2 -2
30 30 61 71 l56 75 0 147 0 147 -55 73 c-30 40 -55 76 -55 79 0 3 25 38 55 78
l54 73 2 146 1 146 -57 76 c-32 42 -58 76 -59 76 -1 0 -28 -35 -59 -77z"/>
<path d="M11947 8161 l-57 -80 0 -138 0 -138 56 -78 c31 -42 59 -77 63 -77 3
1 32 37 64 81 l57 80 0 133 0 134 -60 81 c-33 45 -61 81 -63 81 -2 0 -29 -36
-60 -79z"/>
<path d="M6568 7561 l-58 -78 0 -137 0 -136 58 -79 c31 -44 59 -80 62 -80 3 0
31 35 63 78 l57 78 0 138 0 138 -57 78 c-31 44 -59 79 -62 79 -3 -1 -32 -36
-63 -79z"/>
<path d="M7148 7559 l-58 -80 0 -132 0 -133 61 -83 c33 -46 64 -80 68 -75 5 5
31 41 60 80 l51 72 0 138 0 139 -56 78 c-31 42 -59 77 -63 77 -3 -1 -32 -37
-63 -81z"/>
<path d="M8157 7561 l-57 -80 0 -135 0 -135 58 -80 c31 -44 59 -80 62 -80 3 0
31 35 63 78 l57 78 0 138 0 138 -57 78 c-31 44 -59 79 -62 79 -4 0 -32 -36
-64 -79z"/>
<path d="M8738 7560 l-58 -80 0 -134 0 -134 61 -82 c33 -45 64 -78 68 -74 4 5
31 41 59 80 l52 71 0 140 0 139 -55 75 c-31 41 -59 75 -63 76 -4 1 -33 -33
-64 -77z"/>
<path d="M10357 7563 l-57 -77 0 -139 0 -140 52 -71 c28 -39 55 -75 59 -80 4
-4 35 29 68 74 l61 82 0 134 0 134 -57 80 c-32 44 -60 80 -63 80 -3 0 -32 -35
-63 -77z"/>
<path d="M11946 7563 l-56 -78 0 -139 0 -138 51 -72 c29 -39 55 -75 60 -80 4
-5 35 29 68 75 l61 83 0 133 0 132 -57 80 c-32 44 -61 80 -64 81 -4 0 -32 -35
-63 -77z"/>
<path d="M315 7122 c-27 -37 -49 -72 -49 -78 1 -6 25 -41 54 -77 l52 -67 163
0 163 0 43 57 c24 32 50 65 56 74 11 15 5 28 -43 88 l-55 71 -167 0 -167 -1
-50 -67z"/>
<path d="M1902 7119 c-33 -42 -50 -74 -46 -82 5 -6 30 -40 57 -74 l49 -63 163
0 163 0 43 57 c24 32 49 65 56 74 10 14 4 28 -43 88 l-55 71 -167 -1 -167 0
-53 -70z"/>
<path d="M3535 7119 l-57 -70 57 -75 57 -74 163 0 163 0 55 72 c62 81 63 72
-8 161 l-45 57 -164 0 -164 0 -57 -71z"/>
<path d="M5125 7119 l-57 -70 57 -75 57 -74 163 0 162 0 48 63 c27 34 52 67
57 73 5 7 -12 38 -47 83 l-56 71 -164 0 -164 0 -56 -71z"/>
<path d="M6702 7120 c-30 -38 -52 -74 -50 -78 1 -5 26 -39 53 -75 l50 -66 165
0 165 0 53 69 c28 37 52 72 52 75 0 4 -23 38 -51 76 l-51 69 -167 0 -166 0
-53 -70z"/>
<path d="M8291 7120 c-29 -38 -51 -73 -49 -78 1 -5 26 -39 53 -75 l50 -66 165
0 165 0 53 69 c28 37 52 72 52 76 0 4 -23 38 -52 76 l-52 68 -166 0 -166 0
-53 -70z"/>
<path d="M9906 7119 l-57 -70 57 -75 57 -74 162 0 163 0 49 63 c27 34 52 68
57 74 4 8 -13 40 -46 82 l-53 70 -166 0 -166 1 -57 -71z"/>
<path d="M11495 7120 l-57 -71 58 -74 57 -75 162 0 163 0 49 63 c27 34 52 68
57 74 4 8 -14 40 -49 83 l-56 70 -163 0 -164 0 -57 -70z"/>
<path d="M192 6667 l-62 -63 0 -124 0 -124 60 -61 60 -60 -60 -67 -60 -66 0
-122 0 -122 60 -62 59 -62 -59 -59 -60 -59 0 -126 0 -126 63 -63 64 -62 61 68
62 68 0 120 0 119 -62 63 -62 63 62 63 62 63 0 119 0 119 -62 63 -62 63 62 63
62 63 0 119 -1 120 -62 68 -62 67 -63 -63z"/>
<path d="M839 6656 l-57 -73 55 -71 55 -72 167 0 166 0 53 69 c28 37 52 71 52
75 0 4 -25 38 -55 77 l-56 69 -162 0 -162 -1 -56 -73z"/>
<path d="M1776 6661 l-66 -69 0 -114 0 -114 41 -39 c22 -22 50 -53 61 -68 l20
-28 -61 -69 -61 -68 0 -112 0 -112 60 -62 c33 -35 60 -67 60 -72 0 -5 -27 -36
-60 -69 l-60 -59 0 -114 0 -114 68 -70 67 -70 62 69 62 68 1 118 0 119 -62 64
-62 65 62 62 62 63 0 119 0 119 -62 63 -62 63 62 63 62 63 0 119 -1 120 -63
67 -63 67 -67 -68z"/>
<path d="M2429 6657 l-57 -73 54 -72 55 -72 167 0 168 0 52 70 c28 38 52 72
52 75 0 3 -25 37 -56 76 l-56 69 -162 0 -161 0 -56 -73z"/>
<path d="M3393 6660 l-63 -66 0 -118 0 -118 62 -64 62 -65 -62 -62 -62 -63 0
-119 0 -119 61 -62 62 -63 -62 -68 -61 -68 0 -113 0 -113 63 -69 62 -69 68 67
67 66 0 115 0 114 -60 63 c-33 34 -60 66 -60 71 0 5 27 35 60 68 l60 59 0 116
0 115 -61 68 -61 68 61 69 61 68 0 114 0 114 -67 65 -68 65 -62 -66z"/>
<path d="M4045 6656 l-57 -75 54 -70 53 -70 167 0 167 -1 55 71 c48 60 54 73
43 88 -6 9 -32 42 -56 74 l-43 57 -163 0 -163 0 -57 -74z"/>
<path d="M4983 6660 l-63 -67 0 -119 0 -118 62 -63 62 -63 -62 -63 -62 -63 0
-119 0 -119 62 -63 61 -62 -61 -67 -62 -67 0 -114 0 -114 62 -70 62 -69 68 67
68 67 0 116 0 116 -60 59 c-33 33 -60 64 -60 70 0 6 27 37 60 70 l60 59 0 114
0 114 -61 69 -61 69 30 37 c17 21 44 51 61 67 l31 30 0 116 0 116 -67 65 -68
66 -62 -67z"/>
<path d="M5634 6655 l-56 -74 54 -70 53 -70 167 0 167 -1 55 71 c48 60 54 73
43 88 -6 9 -32 42 -56 74 l-43 57 -164 0 -164 0 -56 -75z"/>
<path d="M6563 6667 l-63 -65 0 -123 0 -123 62 -63 62 -63 -62 -63 -62 -63 0
-120 0 -121 59 -65 60 -65 -60 -59 -59 -58 0 -126 0 -126 63 -62 63 -63 62 65
62 64 0 123 0 123 -60 61 -60 60 60 67 60 66 0 118 0 118 -62 63 -62 63 62 63
62 63 0 119 0 120 -63 69 -62 68 -62 -65z"/>
<path d="M7212 6659 c-30 -38 -51 -76 -49 -84 3 -7 27 -41 53 -74 l47 -61 167
0 166 0 53 70 c29 38 51 73 49 78 -1 5 -25 39 -53 75 l-50 66 -165 0 -165 0
-53 -70z"/>
<path d="M8153 6668 l-63 -64 0 -124 0 -124 61 -62 61 -61 -61 -65 -61 -66 0
-120 0 -121 60 -64 59 -64 -59 -58 -60 -59 0 -126 0 -126 63 -62 64 -63 61 67
62 67 0 121 0 120 -60 61 -61 61 61 66 60 66 0 118 0 118 -62 63 -62 63 62 63
62 63 0 119 -1 120 -62 68 -62 68 -62 -63z"/>
<path d="M8802 6659 c-30 -38 -51 -76 -49 -84 3 -7 27 -41 53 -74 l47 -61 166
0 166 0 53 69 c28 37 52 71 52 75 0 4 -25 38 -55 77 l-56 69 -162 0 -162 -1
-53 -70z"/>
<path d="M9782 6665 l-62 -68 0 -121 0 -120 62 -63 62 -63 -62 -63 -62 -63 0
-119 1 -120 59 -65 59 -65 -59 -60 -60 -61 0 -125 0 -125 63 -62 63 -63 67 70
67 69 0 112 0 112 -64 66 -64 67 64 70 63 70 1 110 0 109 -67 68 -67 68 67 68
67 68 0 111 0 111 -68 72 -68 73 -62 -68z"/>
<path d="M10435 6661 c-30 -39 -55 -73 -55 -77 0 -4 23 -38 52 -76 l52 -68
166 0 167 0 47 61 c26 33 50 67 53 74 2 8 -19 46 -49 84 l-53 70 -162 1 -162
0 -56 -69z"/>
<path d="M11372 6666 l-62 -67 0 -122 0 -121 62 -63 62 -63 -62 -63 -62 -63 0
-118 0 -119 59 -67 60 -67 -60 -59 -59 -58 0 -126 0 -126 63 -62 63 -62 62 63
62 63 0 125 0 125 -60 59 -59 58 59 68 60 67 0 118 0 118 -62 63 -62 63 62 63
62 63 0 121 0 121 -63 67 -62 68 -63 -67z"/>
<path d="M12025 6663 c-27 -36 -52 -70 -53 -75 -2 -4 20 -40 48 -78 l52 -70
168 0 168 0 51 69 c28 38 51 72 51 76 0 3 -24 38 -52 75 l-53 69 -165 0 -165
0 -50 -66z"/>
<path d="M707 6502 l-57 -79 0 -140 0 -140 55 -76 c30 -41 55 -78 55 -82 0 -4
-25 -41 -55 -83 l-55 -76 0 -141 0 -141 55 -74 c30 -40 57 -75 59 -77 3 -3 32
32 65 78 l61 83 0 132 0 132 -61 82 -60 82 17 26 c10 15 37 53 61 86 l43 58 0
132 0 132 -56 75 c-30 41 -59 77 -63 82 -4 4 -33 -28 -64 -71z"/>
<path d="M1288 6501 l-58 -78 0 -139 0 -139 56 -78 c31 -42 59 -77 63 -77 3 1
32 36 64 79 l57 78 0 136 0 135 -60 81 c-33 45 -61 81 -62 81 -2 -1 -29 -36
-60 -79z"/>
<path d="M2297 6503 l-57 -77 0 -143 0 -144 55 -73 c30 -40 55 -76 55 -80 0
-4 -25 -42 -55 -83 l-55 -76 0 -141 0 -141 51 -70 c28 -39 54 -74 58 -78 4 -4
34 26 65 68 l57 76 0 144 0 144 -55 76 c-31 41 -56 77 -56 80 0 3 25 38 55 78
l54 73 2 146 1 146 -57 76 c-32 42 -58 76 -59 76 -1 0 -28 -35 -59 -77z"/>
<path d="M2877 6501 l-57 -80 0 -138 0 -139 56 -77 c30 -42 58 -77 62 -77 4 0
33 36 65 80 l57 80 0 133 0 133 -60 82 c-33 45 -61 82 -63 82 -1 0 -28 -36
-60 -79z"/>
<path d="M3911 6499 l-61 -83 0 -133 0 -133 58 -80 c31 -44 60 -80 64 -80 4 0
32 35 62 77 l56 77 0 139 0 139 -51 72 c-29 39 -55 75 -59 80 -5 4 -35 -29
-69 -75z"/>
<path d="M4496 6504 l-56 -77 0 -145 0 -145 55 -73 c30 -40 55 -76 55 -79 0
-3 -25 -39 -55 -80 l-55 -74 0 -146 0 -146 57 -75 c31 -41 60 -71 64 -67 4 4
30 39 58 78 l51 70 0 141 0 141 -55 76 c-30 41 -55 79 -55 83 0 4 25 40 55 80
l55 73 0 144 0 143 -55 74 c-30 40 -56 75 -59 77 -2 2 -29 -30 -60 -73z"/>
<path d="M5501 6499 l-61 -83 0 -134 0 -135 58 -78 c31 -43 60 -78 63 -79 4 0
32 35 63 77 l56 78 0 140 -1 140 -59 78 -59 79 -60 -83z"/>
<path d="M6081 6498 l-61 -82 0 -132 0 -132 43 -58 c24 -33 51 -71 61 -86 l17
-26 -60 -82 -61 -82 0 -132 0 -132 61 -83 c33 -45 63 -81 65 -78 3 2 29 37 59
77 l55 74 0 141 0 141 -55 76 c-30 42 -55 80 -55 84 0 4 25 40 55 80 l55 73 0
142 0 142 -57 78 c-31 44 -57 79 -59 79 -1 0 -29 -37 -63 -82z"/>
<path d="M7077 6501 l-57 -80 0 -138 0 -139 56 -77 c30 -42 58 -77 62 -77 4 0
33 36 65 80 l57 80 0 133 0 133 -60 82 c-33 45 -61 82 -63 82 -1 0 -28 -36
-60 -79z"/>
<path d="M7658 6500 l-58 -80 0 -136 0 -137 57 -78 c31 -44 59 -79 62 -79 4 0
32 36 64 79 l57 80 0 135 0 136 -57 79 c-32 44 -60 80 -63 80 -3 0 -31 -35
-62 -79z"/>
<path d="M8667 6501 l-57 -80 0 -139 0 -139 55 -76 c30 -41 55 -79 55 -84 0
-4 -25 -42 -55 -83 l-55 -75 0 -141 0 -140 55 -74 c30 -40 57 -75 59 -77 3 -3
32 32 65 77 l61 82 0 132 0 133 -60 83 c-33 45 -57 88 -53 94 4 6 31 44 60 83
l53 73 0 133 0 133 -60 82 c-33 45 -62 82 -64 82 -1 0 -28 -36 -59 -79z"/>
<path d="M9248 6501 l-58 -78 0 -140 0 -139 55 -75 c31 -41 59 -75 63 -76 4
-1 33 33 65 76 l57 78 0 135 0 135 -57 81 c-32 45 -60 81 -63 81 -3 0 -31 -35
-62 -78z"/>
<path d="M10298 6501 l-58 -78 0 -140 0 -139 56 -75 c30 -41 59 -74 64 -74 4
0 33 34 64 77 l56 76 0 136 0 136 -57 79 c-32 44 -60 80 -63 80 -3 0 -31 -35
-62 -78z"/>
<path d="M10878 6499 l-58 -79 0 -136 0 -135 57 -80 c31 -43 59 -79 63 -79 4
0 32 35 63 79 l57 78 0 137 0 136 -57 80 c-32 44 -60 79 -63 79 -3 0 -31 -36
-62 -80z"/>
<path d="M11888 6501 l-58 -78 0 -140 0 -139 55 -75 c31 -41 59 -75 63 -76 4
-1 33 33 65 76 l57 78 0 136 0 135 -60 81 c-33 45 -61 81 -62 81 -2 -1 -29
-36 -60 -79z"/>
<path d="M12468 6499 l-58 -80 0 -135 0 -135 57 -80 c31 -43 59 -79 63 -79 4
0 32 36 63 79 l57 80 0 135 0 135 -57 80 c-32 44 -60 80 -63 80 -3 0 -31 -36
-62 -80z"/>
<path d="M1287 5903 l-57 -77 0 -139 0 -138 57 -80 c31 -43 59 -79 62 -79 3 1
32 37 64 82 l57 81 0 133 0 133 -57 80 c-32 44 -60 80 -63 81 -3 0 -32 -35
-63 -77z"/>
<path d="M2877 5903 l-57 -77 0 -139 0 -140 57 -78 c31 -44 58 -79 60 -79 2 0
30 36 63 81 l60 81 0 134 0 134 -57 79 c-32 44 -60 80 -63 80 -3 1 -32 -34
-63 -76z"/>
<path d="M3908 5898 l-58 -81 0 -133 0 -132 61 -82 c33 -45 62 -80 65 -77 2 2
29 37 59 77 l55 74 0 141 0 141 -55 75 c-31 41 -59 75 -63 76 -4 1 -33 -34
-64 -79z"/>
<path d="M5498 5899 l-58 -80 0 -133 0 -133 58 -81 c31 -45 60 -81 63 -82 3 0
31 36 62 79 l57 80 0 139 0 138 -55 75 c-31 41 -59 75 -63 76 -4 1 -33 -34
-64 -78z"/>
<path d="M7077 5903 l-57 -77 0 -139 0 -139 51 -72 c29 -39 55 -75 59 -80 5
-4 36 29 69 74 l61 82 0 134 0 133 -57 80 c-32 44 -60 80 -63 81 -3 0 -32 -35
-63 -77z"/>
<path d="M7657 5901 l-57 -80 0 -137 0 -137 58 -78 c31 -43 59 -78 62 -78 3 0
31 36 63 80 l57 80 0 136 0 136 -57 78 c-32 43 -61 78 -64 79 -3 0 -31 -36
-62 -79z"/>
<path d="M9247 5901 l-57 -78 0 -138 0 -138 58 -78 c31 -43 59 -78 62 -78 3 0
31 36 63 80 l57 79 0 135 0 135 -57 80 c-32 44 -61 80 -64 80 -3 0 -31 -35
-62 -79z"/>
<path d="M10297 5901 l-57 -80 0 -137 0 -137 58 -78 c31 -43 59 -78 62 -78 3
0 31 36 63 80 l57 80 0 136 0 136 -57 78 c-32 43 -61 78 -64 79 -3 0 -31 -36
-62 -79z"/>
<path d="M10878 5901 l-58 -78 0 -137 0 -136 58 -80 c31 -44 59 -79 62 -79 3
0 31 35 63 78 l57 78 0 137 0 137 -57 80 c-31 43 -59 79 -62 79 -3 -1 -32 -36
-63 -79z"/>
<path d="M11887 5901 l-57 -78 0 -137 0 -137 57 -80 c32 -43 60 -79 63 -78 3
0 31 36 63 80 l57 79 0 135 0 135 -57 80 c-32 44 -61 80 -64 80 -3 0 -31 -35
-62 -79z"/>
<path d="M12467 5901 l-57 -80 0 -137 0 -137 58 -78 c31 -43 59 -78 62 -78 3
0 31 35 63 79 l57 80 0 135 0 136 -57 80 c-32 43 -60 79 -63 79 -3 0 -31 -36
-63 -79z"/>
<path d="M838 5458 l-56 -72 56 -73 56 -73 163 0 162 0 56 69 c30 39 55 73 55
76 0 4 -24 38 -52 75 l-53 69 -166 1 -166 0 -55 -72z"/>
<path d="M2428 5458 l-56 -72 56 -73 56 -73 163 0 162 0 56 69 c30 39 55 73
55 76 0 4 -24 38 -52 75 l-53 69 -166 1 -166 0 -55 -72z"/>
<path d="M4055 5473 c-72 -90 -71 -82 -9 -162 l55 -71 163 0 163 0 57 74 57
75 -57 70 -57 71 -163 0 -164 0 -45 -57z"/>
<path d="M5635 5460 c-34 -42 -53 -75 -49 -83 4 -6 29 -40 57 -74 l49 -63 162
0 163 0 57 74 57 75 -57 70 -57 71 -163 0 -163 0 -56 -70z"/>
<path d="M7212 5462 c-29 -38 -52 -72 -52 -76 0 -4 24 -39 53 -76 l52 -69 165
0 165 0 53 69 c28 37 52 72 52 76 0 3 -24 38 -52 75 l-53 69 -165 0 -166 0
-52 -68z"/>
<path d="M8799 5458 l-56 -73 56 -72 56 -73 165 1 165 0 50 66 c28 36 52 70
53 75 2 4 -20 40 -50 78 l-53 70 -165 0 -166 0 -55 -72z"/>
<path d="M10432 5460 c-30 -38 -52 -74 -50 -78 1 -5 26 -39 53 -75 l50 -66
165 -1 165 0 53 69 c28 37 52 72 52 76 0 4 -23 38 -51 76 l-51 69 -167 0 -166
0 -53 -70z"/>
<path d="M12022 5461 c-28 -37 -52 -72 -52 -75 0 -4 24 -39 53 -76 l52 -69
165 0 165 0 53 69 c28 37 52 72 52 76 0 4 -23 38 -52 76 l-52 68 -166 0 -165
0 -53 -69z"/>
<path d="M312 4929 l-54 -70 57 -75 57 -74 163 0 163 0 43 57 c24 32 50 65 56
74 11 15 5 28 -43 88 l-55 71 -167 -1 -167 0 -53 -70z"/>
<path d="M1271 4935 l-61 -66 0 -117 0 -118 60 -59 c33 -33 60 -64 60 -70 0
-6 -27 -37 -60 -70 l-60 -59 0 -115 0 -114 61 -69 62 -70 -62 -62 -61 -62 0
-120 0 -120 65 -64 66 -65 64 66 65 67 0 118 0 118 -62 63 -62 62 62 70 62 69
0 114 0 114 -60 59 c-33 33 -60 64 -60 70 0 6 27 37 60 70 l60 59 0 116 0 115
-61 68 c-33 37 -64 67 -69 67 -4 0 -35 -29 -69 -65z"/>
<path d="M1902 4929 l-54 -70 56 -74 56 -75 163 0 163 0 56 74 57 74 -55 71
-55 71 -167 0 -167 -1 -53 -70z"/>
<path d="M2862 4936 l-62 -64 0 -119 0 -119 60 -59 c33 -33 60 -63 60 -68 0
-5 -27 -37 -60 -71 l-60 -63 0 -115 0 -115 62 -67 61 -67 -61 -62 -62 -63 0
-120 0 -120 66 -64 65 -65 65 68 64 67 0 117 0 117 -61 62 -62 62 31 39 c16
21 44 51 61 67 l31 30 0 116 0 116 -60 59 c-33 33 -60 64 -60 70 0 6 27 37 60
70 l60 59 0 114 0 114 -61 69 c-34 38 -64 69 -68 69 -5 0 -36 -29 -69 -64z"/>
<path d="M3535 4930 l-56 -71 57 -74 57 -75 162 0 163 0 57 74 57 75 -57 70
-56 71 -164 0 -164 0 -56 -70z"/>
<path d="M4491 4931 l-61 -69 0 -114 0 -114 60 -59 c33 -33 60 -64 60 -70 0
-6 -27 -37 -60 -70 l-60 -59 0 -117 c0 -105 2 -118 21 -135 12 -10 39 -41 62
-67 l40 -48 -61 -62 -62 -63 0 -117 0 -117 64 -67 65 -68 65 65 66 64 0 120 0
120 -61 62 -62 63 62 68 61 68 0 115 0 116 -60 59 c-33 33 -60 64 -60 70 0 6
27 37 60 70 l60 59 0 119 0 119 -62 64 c-33 35 -64 64 -69 64 -4 0 -34 -31
-68 -69z"/>
<path d="M5122 4929 l-53 -71 57 -74 57 -74 162 0 162 0 57 75 57 74 -56 71
-56 70 -167 -1 -167 0 -53 -70z"/>
<path d="M6081 4933 l-61 -68 0 -115 0 -116 60 -59 c33 -33 60 -64 60 -70 0
-6 -27 -37 -60 -70 l-60 -59 0 -114 0 -114 62 -69 62 -70 -62 -62 -62 -63 0
-120 0 -120 65 -64 65 -64 65 64 65 64 0 120 0 120 -62 63 -61 62 61 69 62 70
0 114 0 114 -60 59 c-33 33 -60 64 -60 70 0 6 27 37 60 70 l60 59 0 117 0 116
-61 67 c-33 36 -65 66 -69 66 -5 0 -36 -30 -69 -67z"/>
<path d="M6702 4932 c-29 -38 -52 -72 -52 -76 0 -4 25 -38 55 -77 l56 -69 162
0 162 1 53 70 c30 38 51 76 49 84 -3 7 -27 41 -53 74 l-47 61 -167 0 -166 0
-52 -68z"/>
<path d="M7662 4937 l-62 -63 0 -119 1 -120 59 -64 58 -65 -59 -64 -59 -65 0
-121 0 -120 62 -63 61 -62 -61 -64 -62 -64 0 -119 0 -120 65 -64 64 -64 60 65
60 64 1 121 0 121 -59 65 -60 65 60 59 59 58 0 126 0 126 -60 59 -60 59 60 61
60 61 0 125 0 125 -63 62 -63 62 -62 -63z"/>
<path d="M8296 4939 c-26 -33 -50 -67 -53 -75 -3 -8 19 -44 51 -84 l57 -70
162 0 162 1 50 66 c28 36 52 70 53 75 2 5 -20 40 -49 78 l-53 70 -166 0 -167
0 -47 -61z"/>
<path d="M9252 4937 l-62 -63 0 -119 0 -120 59 -65 59 -65 -59 -63 -59 -63 0
-122 0 -121 60 -61 61 -61 -61 -66 -60 -66 0 -119 0 -119 63 -62 64 -63 61 63
62 63 0 119 0 118 -60 67 -59 68 59 58 60 59 0 126 0 126 -60 59 -59 58 59 64
60 64 0 122 0 123 -63 62 -63 62 -62 -63z"/>
<path d="M9906 4930 l-57 -70 58 -75 57 -75 162 0 162 0 49 63 c27 34 52 68
57 74 4 8 -13 40 -46 82 l-53 70 -166 0 -167 1 -56 -70z"/>
<path d="M10863 4931 l-63 -70 0 -113 0 -114 65 -64 65 -64 -65 -66 -65 -66 0
-115 0 -115 60 -59 c33 -33 60 -64 60 -69 0 -5 -27 -37 -60 -72 l-60 -62 0
-114 0 -113 64 -70 64 -70 66 65 66 64 0 120 0 120 -62 63 -62 62 62 65 62 64
0 119 0 119 -31 30 c-17 16 -45 46 -61 67 l-31 39 62 62 61 62 0 120 0 120
-63 62 c-34 34 -65 62 -67 62 -3 0 -33 -31 -67 -69z"/>
<path d="M11496 4930 l-57 -70 57 -75 56 -75 164 0 164 0 56 75 56 74 -54 70
-53 70 -166 0 -167 1 -56 -70z"/>
<path d="M12451 4931 l-61 -69 0 -114 0 -114 60 -59 c33 -33 60 -64 60 -70 0
-6 -27 -37 -60 -70 l-60 -59 0 -114 0 -114 60 -65 c33 -35 60 -67 60 -71 0 -4
-27 -34 -60 -67 l-60 -59 0 -117 0 -117 64 -68 64 -69 66 65 66 64 0 120 0
120 -62 63 -61 62 61 67 62 67 0 115 0 115 -60 63 c-33 34 -60 66 -60 71 0 5
27 35 60 68 l60 59 0 121 0 121 -63 62 c-34 34 -65 62 -68 62 -3 0 -34 -31
-68 -69z"/>
<path d="M183 4775 l-53 -73 0 -144 0 -143 55 -75 c30 -41 55 -78 55 -81 0 -3
-25 -39 -55 -79 l-55 -74 0 -143 0 -144 57 -79 56 -79 58 77 58 77 1 144 0
143 -51 70 c-27 38 -52 75 -55 81 -2 7 20 46 51 87 l55 74 0 144 0 145 -55 74
c-31 40 -59 73 -63 72 -4 0 -31 -33 -59 -74z"/>
<path d="M765 4776 l-55 -75 0 -143 0 -143 55 -75 c31 -41 53 -80 51 -87 -3
-6 -28 -43 -55 -81 l-51 -70 0 -143 1 -144 58 -77 58 -78 57 79 56 78 0 145 0
144 -55 74 c-30 40 -55 75 -55 78 0 2 25 38 55 80 l55 76 0 144 0 144 -52 73
c-29 41 -56 74 -60 74 -5 1 -33 -33 -63 -73z"/>
<path d="M1773 4776 l-53 -75 0 -143 0 -144 55 -76 c30 -42 55 -78 55 -80 0
-3 -25 -38 -55 -78 l-55 -74 0 -144 0 -145 56 -78 57 -79 58 78 58 77 1 143 0
144 -55 75 c-30 42 -55 78 -55 82 0 4 25 40 55 81 l55 75 0 143 0 142 -55 75
c-31 41 -59 75 -63 75 -4 0 -31 -34 -59 -74z"/>
<path d="M2355 4777 l-55 -74 0 -145 0 -144 55 -74 c30 -40 55 -76 55 -79 0
-4 -25 -40 -55 -81 l-55 -75 0 -145 1 -145 58 -77 58 -77 56 79 57 79 0 144 0
143 -55 74 c-30 40 -55 76 -55 79 0 3 25 40 55 81 l55 75 0 144 0 144 -55 74
c-31 40 -58 73 -60 73 -2 0 -29 -33 -60 -73z"/>
<path d="M3405 4776 l-55 -75 0 -144 0 -143 55 -74 c31 -41 53 -80 51 -87 -3
-6 -28 -43 -55 -81 l-51 -70 0 -143 1 -144 58 -77 58 -77 56 79 57 79 0 144 0
143 -55 74 c-30 40 -55 76 -55 79 0 3 25 40 55 81 l55 75 0 144 0 144 -55 74
c-31 40 -58 73 -60 73 -3 0 -30 -34 -60 -74z"/>
<path d="M3986 4775 l-56 -74 0 -142 0 -141 55 -75 c30 -42 55 -80 55 -85 0
-5 -25 -42 -55 -82 l-55 -73 0 -141 0 -142 58 -79 59 -80 61 83 62 84 0 132 0
132 -61 84 -61 84 61 82 61 82 0 133 0 133 -57 80 c-32 44 -61 80 -64 80 -4 0
-32 -34 -63 -75z"/>
<path d="M4995 4777 l-55 -74 0 -145 0 -144 55 -74 c30 -40 55 -76 55 -79 0
-4 -25 -40 -55 -81 l-55 -75 0 -143 0 -144 56 -76 c31 -43 57 -77 59 -77 2 0
28 34 59 77 l56 76 0 144 0 143 -55 75 c-30 41 -55 77 -55 81 0 3 25 39 55 79
l55 74 0 144 0 145 -55 74 c-31 40 -58 73 -60 73 -2 0 -29 -33 -60 -73z"/>
<path d="M5575 4775 l-55 -75 0 -141 0 -141 51 -70 c27 -38 52 -75 55 -83 3
-7 -20 -47 -50 -88 l-56 -74 0 -142 0 -142 58 -79 58 -79 57 76 57 77 0 146 0
145 -56 77 -56 77 57 79 57 78 -1 144 -2 143 -52 73 c-29 41 -55 74 -59 74 -4
0 -32 -34 -63 -75z"/>
<path d="M6567 4771 l-57 -80 0 -134 0 -135 60 -81 60 -81 -60 -82 -60 -82 0
-134 0 -135 57 -78 c31 -44 60 -79 64 -79 4 0 33 34 63 76 l56 77 0 139 0 139
-55 73 c-30 40 -55 78 -55 85 0 7 25 46 55 86 l55 75 0 138 0 138 -55 75 c-31
41 -59 75 -64 77 -4 1 -33 -33 -64 -77z"/>
<path d="M7148 4771 l-58 -78 0 -135 0 -134 61 -82 61 -81 -61 -84 -61 -84 0
-132 0 -133 61 -83 61 -84 59 79 59 80 0 142 0 141 -55 73 c-30 40 -55 78 -55
84 0 6 25 44 55 84 l55 73 0 142 0 142 -56 74 c-31 41 -59 75 -63 75 -3 -1
-32 -36 -63 -79z"/>
<path d="M8157 4772 l-57 -79 0 -136 0 -135 60 -82 61 -81 59 81 60 80 0 138
0 138 -55 75 c-31 41 -59 75 -64 77 -4 1 -33 -33 -64 -76z"/>
<path d="M8738 4771 l-58 -78 0 -135 0 -134 61 -82 60 -83 -60 -81 -61 -82 0
-134 0 -133 57 -80 c31 -43 60 -79 64 -79 3 0 32 34 63 75 l56 74 0 141 0 140
-55 75 c-30 40 -55 79 -55 85 0 6 25 44 55 84 l55 73 0 140 0 140 -56 77 c-30
42 -58 76 -62 76 -4 -1 -33 -36 -64 -79z"/>
<path d="M9776 4775 l-56 -74 0 -142 0 -141 51 -70 c27 -38 52 -75 55 -83 3
-7 -20 -47 -50 -88 l-56 -74 0 -142 0 -142 58 -79 58 -79 62 83 62 84 0 132 0
132 -61 84 -60 84 60 83 61 84 0 132 0 131 -57 80 c-32 44 -61 80 -64 80 -4 0
-32 -34 -63 -75z"/>
<path d="M10356 4774 l-56 -77 0 -140 0 -140 55 -73 c30 -40 55 -78 55 -84 0
-6 -25 -45 -55 -85 l-55 -75 0 -140 0 -141 56 -74 c31 -41 60 -75 63 -75 4 0
33 36 64 79 l57 80 0 133 0 134 -61 82 -60 81 60 83 61 82 0 134 0 133 -57 80
c-32 43 -61 79 -65 79 -3 0 -32 -34 -62 -76z"/>
<path d="M11365 4775 l-55 -75 0 -142 0 -143 55 -75 c30 -41 55 -77 55 -81 0
-4 -25 -40 -55 -82 l-55 -75 0 -144 1 -143 58 -77 58 -78 57 79 56 78 0 144 0
144 -56 77 -56 77 56 78 56 77 0 144 0 144 -52 73 c-29 41 -56 74 -60 74 -4 1
-32 -33 -63 -74z"/>
<path d="M11946 4774 l-56 -77 0 -140 0 -140 55 -73 c30 -40 55 -78 55 -84 0
-6 -25 -44 -55 -85 l-55 -74 0 -141 0 -141 56 -74 c31 -41 59 -75 63 -75 3 0
32 36 64 79 l57 80 0 132 0 132 -61 84 -61 84 61 81 61 82 0 134 0 135 -57 78
c-32 43 -61 78 -65 79 -4 0 -32 -34 -62 -76z"/>
<path d="M8156 4173 l-56 -77 0 -136 0 -136 56 -75 c30 -41 60 -74 65 -74 6 0
35 34 65 75 l54 75 0 138 0 138 -56 74 c-31 41 -60 75 -65 75 -4 0 -33 -35
-63 -77z"/>
<path d="M316 3735 l-58 -74 54 -70 53 -70 167 -1 167 0 56 70 56 70 -58 75
-57 75 -162 0 -161 0 -57 -75z"/>
<path d="M1905 3736 l-57 -75 53 -70 54 -70 167 -1 167 0 56 70 56 70 -58 75
-58 75 -161 0 -162 0 -57 -74z"/>
<path d="M3536 3735 l-56 -74 52 -70 53 -70 170 0 170 0 53 69 53 70 -57 75
-56 75 -163 0 -163 0 -56 -75z"/>
<path d="M5126 3735 l-58 -74 54 -70 53 -70 170 0 170 0 53 70 53 69 -58 75
-57 75 -162 0 -161 0 -57 -75z"/>
<path d="M6705 3739 c-31 -38 -54 -76 -51 -84 2 -7 26 -41 52 -74 l47 -61 167
0 168 0 51 66 c28 37 51 70 51 75 0 5 -24 40 -52 78 l-53 70 -161 0 -162 1
-57 -71z"/>
<path d="M8295 3739 c-31 -38 -54 -76 -51 -84 2 -7 26 -41 52 -74 l47 -61 167
0 168 0 51 66 c28 37 51 70 51 75 0 5 -24 40 -52 78 l-53 70 -162 0 -162 1
-56 -71z"/>
<path d="M9908 3736 l-58 -74 53 -69 53 -68 169 -2 170 -3 54 71 53 70 -57 75
-57 74 -162 0 -161 0 -57 -74z"/>
<path d="M11497 3736 l-57 -74 53 -69 53 -68 169 -2 170 -3 53 70 54 71 -58
74 -57 75 -161 0 -162 0 -57 -74z"/>
<path d="M843 3260 c-29 -38 -53 -74 -53 -80 0 -6 23 -40 51 -75 l51 -65 167
0 167 0 52 68 c29 38 52 72 52 76 0 4 -25 38 -56 77 l-56 69 -162 -1 -161 0
-52 -69z"/>
<path d="M2428 3255 l-57 -73 55 -71 55 -71 167 0 167 0 53 69 c28 37 52 71
52 75 0 3 -25 37 -56 76 l-57 70 -161 0 -161 -1 -57 -74z"/>
<path d="M4046 3255 l-58 -74 54 -71 53 -70 170 3 169 2 53 68 53 69 -57 74
-57 74 -162 0 -161 0 -57 -75z"/>
<path d="M5635 3256 l-57 -75 53 -70 54 -70 167 -1 167 0 55 71 56 71 -57 74
-57 74 -162 0 -162 0 -57 -74z"/>
<path d="M7215 3261 c-30 -39 -55 -74 -55 -79 0 -5 23 -39 51 -76 l51 -66 168
0 167 0 47 61 c26 33 50 67 52 74 3 8 -20 46 -51 84 l-56 71 -159 0 -159 0
-56 -69z"/>
<path d="M8803 3260 c-29 -38 -53 -73 -53 -78 0 -5 23 -39 51 -76 l51 -66 167
0 167 0 52 68 c29 38 52 72 52 76 0 4 -25 38 -56 77 l-56 69 -162 -1 -161 0
-52 -69z"/>
<path d="M10435 3258 c-31 -39 -54 -77 -51 -84 3 -7 26 -40 52 -73 l47 -61
167 0 168 0 51 66 c28 37 51 71 51 77 0 5 -25 41 -55 78 l-56 69 -159 0 -159
0 -56 -72z"/>
<path d="M12025 3259 c-31 -38 -54 -76 -51 -84 2 -7 26 -41 52 -74 l47 -61
167 0 167 0 47 61 c26 33 50 67 53 75 3 8 -19 44 -51 84 l-57 70 -159 0 -159
0 -56 -71z"/>
<path d="M187 3262 l-57 -58 0 -123 0 -123 60 -66 60 -67 -60 -60 -60 -61 0
-125 0 -125 60 -59 60 -59 -60 -61 -60 -61 0 -125 0 -125 63 -62 64 -63 61 66
62 66 0 119 0 119 -59 64 -60 63 60 66 59 66 0 118 0 118 -62 63 -62 63 62 63
62 63 0 119 0 120 -61 63 c-34 34 -64 62 -68 62 -4 0 -32 -26 -64 -58z"/>
<path d="M1772 3256 l-62 -64 0 -112 0 -112 60 -66 c33 -37 60 -71 60 -75 0
-5 -27 -37 -60 -71 l-60 -63 0 -112 0 -113 60 -62 c33 -35 60 -67 60 -72 0 -5
-27 -36 -60 -69 l-60 -59 0 -116 0 -116 68 -67 69 -68 61 67 62 67 0 116 0
116 -60 66 -59 67 59 65 60 65 0 118 0 118 -62 63 -62 63 62 63 62 63 0 120 0
120 -63 62 c-34 34 -65 62 -68 62 -3 0 -34 -29 -67 -64z"/>
<path d="M3392 3257 l-62 -63 0 -119 0 -119 62 -63 62 -62 -62 -65 -62 -64 0
-118 0 -118 62 -63 62 -62 -62 -70 -62 -69 0 -114 1 -113 62 -69 62 -68 68 68
67 69 0 115 0 116 -60 59 c-33 33 -60 64 -60 70 0 6 27 37 60 70 l60 59 0 114
0 114 -61 68 -61 69 61 68 61 68 0 115 0 116 -63 62 c-34 34 -65 62 -68 62 -2
0 -33 -28 -67 -63z"/>
<path d="M4982 3257 l-62 -63 0 -119 0 -119 62 -63 62 -63 -62 -63 -62 -63 0
-119 0 -119 62 -63 61 -62 -61 -69 -62 -70 0 -113 0 -114 62 -68 61 -68 69 68
68 67 0 116 0 116 -60 59 c-33 33 -60 64 -60 70 0 6 27 37 60 70 l60 59 0 116
0 116 -31 30 c-17 16 -44 46 -61 67 l-30 37 61 69 61 69 0 114 0 114 -63 62
c-34 34 -65 62 -68 62 -2 0 -33 -28 -67 -63z"/>
<path d="M6556 3258 l-56 -61 0 -121 0 -120 62 -63 62 -63 -62 -63 -62 -63 0
-123 0 -123 60 -62 59 -62 -59 -59 -60 -59 0 -126 0 -126 63 -62 63 -62 62 63
62 63 0 125 0 125 -59 58 -60 59 60 67 59 67 0 119 0 118 -62 63 -62 63 62 63
62 63 0 117 0 118 -57 65 c-32 35 -63 64 -70 64 -6 0 -36 -28 -67 -62z"/>
<path d="M8146 3260 l-56 -61 0 -121 0 -120 61 -66 61 -65 -61 -61 -61 -62 0
-125 0 -125 60 -59 60 -59 -60 -61 -60 -61 0 -125 0 -125 63 -62 63 -62 62 63
62 63 0 123 0 123 -59 61 -59 62 59 65 58 65 1 120 0 119 -62 63 -62 63 62 63
62 63 0 118 0 119 -57 61 c-32 34 -63 62 -69 64 -6 2 -36 -25 -68 -58z"/>
<path d="M9776 3256 l-56 -64 0 -118 0 -118 62 -63 62 -63 -62 -63 -62 -63 0
-120 0 -121 59 -65 60 -65 -60 -59 -59 -58 0 -126 0 -126 63 -62 63 -63 67 70
67 69 0 112 0 112 -64 66 -64 67 64 69 64 68 0 111 0 111 -67 68 -67 68 67 68
67 68 0 108 0 108 -61 69 c-34 38 -67 69 -74 69 -7 0 -38 -29 -69 -64z"/>
<path d="M11366 3256 l-56 -63 0 -119 0 -118 62 -63 62 -63 -62 -63 -62 -63 0
-121 0 -122 60 -64 59 -64 -59 -58 -60 -59 0 -126 0 -126 63 -62 63 -62 62 63
62 63 0 125 0 125 -59 58 -60 59 60 65 59 65 0 121 0 120 -62 63 -62 63 62 63
62 63 0 118 0 118 -56 64 c-31 35 -62 64 -69 64 -7 0 -38 -29 -69 -64z"/>
<path d="M707 3100 l-57 -79 0 -141 0 -141 55 -73 c30 -40 55 -77 55 -83 0 -5
-25 -43 -55 -83 l-55 -74 0 -141 0 -141 56 -77 c30 -42 57 -77 60 -77 2 0 31
36 64 81 l60 81 0 132 0 132 -60 83 c-36 48 -58 87 -53 94 4 7 31 44 60 84
l53 72 0 132 0 132 -57 79 c-32 44 -60 81 -63 83 -3 2 -32 -32 -63 -75z"/>
<path d="M1288 3101 l-58 -78 0 -140 0 -140 56 -77 c30 -42 59 -76 62 -76 4 0
33 36 65 79 l57 80 0 133 0 134 -60 82 c-33 45 -62 82 -63 82 -1 -1 -28 -36
-59 -79z"/>
<path d="M2297 3101 l-57 -78 0 -142 0 -141 55 -75 c30 -40 55 -77 55 -80 0
-4 -25 -41 -55 -83 l-55 -76 0 -142 0 -141 56 -77 c30 -42 57 -76 60 -76 2 0
29 34 60 75 l55 76 0 144 0 144 -56 75 c-34 47 -53 81 -49 89 5 6 29 42 55 78
l48 65 2 143 1 143 -56 79 c-32 43 -58 79 -60 79 -1 0 -28 -35 -59 -79z"/>
<path d="M2878 3100 l-58 -77 0 -140 0 -140 55 -76 c30 -41 55 -79 55 -84 0
-5 -25 -43 -55 -83 l-55 -74 0 -141 0 -141 55 -75 c31 -41 59 -75 63 -76 4 -1
33 34 65 79 l57 81 0 133 0 132 -60 82 c-36 48 -58 86 -53 93 4 7 31 44 60 83
l53 71 0 135 0 134 -56 75 c-30 41 -58 77 -62 81 -4 3 -33 -29 -64 -72z"/>
<path d="M3911 3098 l-61 -82 0 -134 0 -135 53 -71 c29 -39 56 -76 60 -83 5
-7 -17 -45 -53 -93 l-60 -82 0 -132 0 -133 58 -81 c31 -45 60 -80 64 -79 4 1
32 35 63 76 l55 75 0 141 0 141 -55 74 c-30 40 -55 78 -55 83 0 6 25 43 55 83
l55 73 0 143 -1 143 -58 78 -59 77 -61 -82z"/>
<path d="M4496 3103 l-56 -77 0 -144 0 -144 48 -67 c27 -36 51 -72 56 -78 4
-8 -15 -42 -48 -88 l-56 -75 0 -145 0 -146 55 -75 c30 -40 57 -74 59 -74 3 0
30 34 60 76 l56 77 0 141 0 142 -55 76 c-30 42 -55 79 -55 82 0 3 25 40 55 81
l55 74 0 142 0 142 -57 78 c-31 44 -57 79 -59 79 -1 0 -28 -35 -58 -77z"/>
<path d="M5501 3099 l-61 -83 0 -134 0 -135 58 -78 c31 -43 60 -78 64 -79 4 0
32 34 62 76 l56 77 0 141 -1 141 -58 78 -59 78 -61 -82z"/>
<path d="M6081 3098 l-61 -83 0 -131 0 -131 53 -74 c29 -41 56 -79 60 -86 5
-7 -17 -46 -53 -94 l-60 -83 0 -132 0 -132 60 -81 c33 -45 62 -81 64 -81 3 0
30 35 60 77 l56 77 0 141 0 140 -55 75 c-30 41 -55 79 -55 83 0 4 25 42 55 82
l55 75 0 141 0 141 -51 72 c-29 39 -55 75 -59 79 -4 5 -35 -29 -69 -75z"/>
<path d="M7078 3100 l-58 -77 0 -140 0 -140 56 -77 c30 -42 58 -76 62 -76 4 1
33 36 65 79 l57 78 0 135 0 134 -56 75 c-30 41 -58 77 -62 81 -4 3 -33 -29
-64 -72z"/>
<path d="M7658 3099 l-58 -79 0 -138 0 -138 55 -75 c31 -41 59 -75 64 -77 4
-1 33 33 64 76 l57 79 0 136 0 135 -60 81 c-33 45 -61 81 -62 80 -2 0 -29 -36
-60 -80z"/>
<path d="M8668 3100 l-58 -77 0 -142 0 -142 55 -73 c30 -40 55 -77 55 -83 0
-5 -25 -43 -55 -83 l-55 -74 0 -141 0 -141 55 -74 c30 -40 57 -75 59 -77 3 -3
32 32 65 77 l61 82 0 133 0 133 -60 82 c-36 48 -58 86 -53 93 4 7 31 44 60 83
l53 71 0 135 0 134 -56 75 c-30 41 -58 77 -62 81 -4 3 -33 -29 -64 -72z"/>
<path d="M9248 3100 l-58 -80 0 -137 0 -138 56 -78 c31 -42 59 -77 63 -77 4 0
33 36 64 79 l57 80 0 133 0 134 -60 82 c-33 45 -61 82 -62 82 -2 0 -29 -36
-60 -80z"/>
<path d="M10298 3099 l-58 -80 0 -137 0 -137 56 -78 c31 -42 59 -77 63 -77 4
0 33 36 64 79 l57 80 0 134 0 135 -60 81 c-33 45 -61 81 -62 81 -2 -1 -29 -37
-60 -81z"/>
<path d="M10880 3100 l-60 -82 0 -135 0 -136 57 -79 c31 -43 60 -77 64 -76 5
2 33 36 64 77 l55 75 0 138 0 138 -60 80 -59 81 -61 -81z"/>
<path d="M11888 3100 l-58 -80 0 -138 0 -138 56 -77 c30 -42 58 -77 62 -77 4
0 33 36 65 79 l57 80 0 134 0 133 -60 82 c-33 45 -61 82 -62 82 -2 0 -29 -36
-60 -80z"/>
<path d="M12468 3099 l-58 -79 0 -138 0 -138 56 -75 c30 -41 59 -74 64 -74 5
0 34 33 64 74 l56 75 0 138 0 138 -57 79 c-32 44 -60 80 -63 80 -3 0 -31 -36
-62 -80z"/>
<path d="M1287 2501 l-57 -80 0 -139 0 -138 55 -75 c31 -41 59 -75 63 -76 4
-1 33 34 65 78 l57 80 0 134 0 135 -57 79 c-32 44 -61 80 -64 80 -3 1 -31 -35
-62 -78z"/>
<path d="M5498 2498 l-58 -81 0 -133 0 -133 58 -80 c31 -44 60 -79 64 -78 4 1
32 35 63 76 l55 75 0 139 0 140 -57 78 c-31 44 -59 79 -62 79 -3 -1 -32 -37
-63 -82z"/>
<path d="M7077 2501 l-57 -78 0 -140 0 -139 55 -75 c31 -41 59 -75 63 -76 4
-1 33 34 65 78 l57 79 0 133 0 134 -57 81 c-32 45 -61 81 -64 82 -3 0 -31 -35
-62 -79z"/>
<path d="M7658 2501 l-58 -78 0 -137 0 -137 57 -80 c32 -43 60 -79 63 -79 3 1
31 36 63 79 l57 78 0 137 0 136 -57 80 c-32 44 -60 79 -63 79 -3 0 -31 -35
-62 -78z"/>
<path d="M9247 2501 l-57 -80 0 -136 0 -136 57 -80 c31 -43 59 -79 62 -79 3 0
32 36 64 80 l57 80 0 135 0 134 -57 80 c-32 44 -60 80 -63 81 -3 0 -31 -36
-63 -79z"/>
<path d="M10297 2501 l-57 -80 0 -136 0 -136 57 -80 c31 -43 59 -79 62 -79 3
1 32 36 64 79 l57 78 0 136 0 136 -57 80 c-32 44 -60 80 -63 81 -3 0 -31 -36
-63 -79z"/>
<path d="M10878 2500 l-58 -80 0 -136 0 -137 58 -78 c31 -43 59 -78 62 -79 3
0 31 36 63 79 l57 80 0 137 0 137 -57 78 c-32 43 -60 78 -63 78 -3 0 -31 -35
-62 -79z"/>
<path d="M11887 2501 l-57 -80 0 -137 0 -137 57 -78 c31 -44 59 -79 62 -79 3
1 32 37 64 81 l57 80 0 134 0 135 -57 79 c-32 44 -61 80 -64 80 -3 1 -31 -35
-62 -78z"/>
<path d="M12468 2501 l-58 -78 0 -138 0 -138 58 -78 c31 -43 59 -78 62 -78 3
0 31 35 63 78 l57 78 0 138 0 138 -57 78 c-32 43 -60 78 -63 78 -3 0 -31 -35
-62 -78z"/>
<path d="M839 2058 l-56 -73 56 -72 55 -73 166 0 165 1 50 66 c28 36 51 70 53
74 2 5 -20 40 -50 78 l-53 70 -165 1 -166 0 -55 -72z"/>
<path d="M2427 2057 l-55 -73 56 -72 55 -72 166 1 166 0 53 70 c30 38 52 73
50 78 -2 4 -25 38 -53 74 l-50 66 -166 1 -167 0 -55 -73z"/>
<path d="M4053 2068 c-28 -35 -53 -68 -56 -75 -4 -6 18 -43 49 -82 l55 -71
163 0 163 0 48 63 c27 34 52 67 56 72 4 6 -17 43 -47 83 l-55 72 -163 0 -164
0 -49 -62z"/>
<path d="M5643 2068 c-28 -35 -53 -69 -57 -75 -4 -8 15 -41 49 -83 l56 -70
163 0 164 0 52 68 c28 37 51 72 51 77 0 6 -23 40 -51 78 l-52 67 -163 0 -163
0 -49 -62z"/>
<path d="M7212 2061 c-28 -37 -52 -72 -52 -76 0 -4 24 -39 52 -76 l53 -69 165
0 165 1 53 69 c28 37 52 71 52 74 0 4 -24 38 -52 76 l-52 70 -166 0 -165 0
-53 -69z"/>
<path d="M8799 2057 l-56 -72 56 -73 55 -72 166 0 165 1 53 69 c28 37 52 71
52 75 0 4 -24 38 -52 75 l-53 69 -165 1 -165 0 -56 -73z"/>
<path d="M10433 2060 c-29 -37 -53 -71 -53 -75 0 -4 24 -38 53 -75 l52 -69
165 -1 165 0 53 69 c28 37 52 72 52 76 0 5 -23 39 -52 77 l-52 68 -165 0 -166
-1 -52 -69z"/>
<path d="M12023 2060 c-29 -37 -53 -72 -53 -76 0 -3 24 -38 52 -75 l53 -69
165 0 165 0 53 69 c28 37 52 72 52 76 0 4 -24 39 -52 76 l-53 69 -165 0 -165
-1 -52 -69z"/>
<path d="M316 1566 l-57 -75 57 -75 56 -76 162 0 162 0 57 75 58 75 -58 75
-58 75 -161 0 -161 0 -57 -74z"/>
<path d="M1905 1565 l-57 -75 57 -75 58 -75 161 0 161 0 58 75 57 75 -57 74
-58 75 -161 1 -161 0 -58 -75z"/>
<path d="M3537 1565 l-58 -75 58 -75 57 -75 161 0 161 0 57 75 58 75 -58 75
-57 75 -161 0 -160 0 -58 -75z"/>
<path d="M5127 1565 l-58 -75 58 -75 57 -75 161 0 161 0 57 75 58 75 -58 75
-58 75 -160 0 -161 0 -57 -75z"/>
<path d="M6706 1569 c-31 -39 -56 -74 -56 -78 0 -4 25 -40 56 -79 l55 -72 159
0 159 0 57 71 c65 81 65 77 -10 172 l-46 57 -160 0 -159 0 -55 -71z"/>
<path d="M8296 1571 c-31 -39 -56 -74 -56 -79 0 -6 25 -42 56 -81 l55 -71 159
0 159 0 56 69 c30 39 55 74 55 79 0 6 -25 42 -56 81 l-55 71 -158 0 -159 0
-56 -69z"/>
<path d="M9965 1632 c-6 -4 -34 -37 -62 -73 l-52 -67 57 -76 56 -76 162 0 162
0 57 75 57 75 -57 75 -58 75 -156 0 c-86 0 -161 -4 -166 -8z"/>
<path d="M11555 1632 c-6 -4 -34 -37 -63 -74 l-53 -67 58 -76 58 -75 161 0
161 0 57 75 58 74 -58 76 -58 75 -156 0 c-85 0 -160 -4 -165 -8z"/>
<path d="M1272 1567 l-62 -63 0 -119 0 -119 62 -63 62 -62 -62 -70 -62 -69 0
-113 0 -112 60 -63 c33 -34 60 -66 60 -71 0 -5 -27 -35 -60 -68 l-60 -59 0
-116 0 -116 65 -69 65 -70 65 70 64 70 1 115 0 116 -60 59 c-33 33 -60 64 -60
70 0 6 27 37 60 70 l60 59 0 116 0 116 -31 30 c-17 16 -45 46 -61 67 l-31 39
62 62 61 62 0 118 0 118 -62 64 c-33 35 -64 64 -67 64 -4 0 -35 -28 -69 -63z"/>
<path d="M2862 1567 l-62 -63 0 -119 0 -119 62 -63 61 -62 -61 -69 -62 -70 0
-114 0 -114 31 -30 c17 -16 45 -46 61 -67 l31 -39 -62 -62 -61 -62 0 -116 0
-116 65 -68 64 -69 65 70 65 70 1 115 0 116 -60 59 c-33 33 -60 64 -60 70 0 6
27 37 60 70 l60 59 0 116 0 116 -51 49 c-80 79 -80 77 -10 150 l61 63 0 117 0
117 -62 64 c-33 35 -64 64 -67 64 -4 0 -35 -28 -69 -63z"/>
<path d="M4492 1567 l-62 -63 0 -120 0 -120 60 -59 c33 -33 60 -63 60 -67 0
-4 -27 -36 -60 -71 l-60 -65 0 -114 0 -114 60 -59 c33 -33 60 -64 60 -70 0 -6
-27 -37 -60 -70 l-60 -59 0 -116 1 -115 65 -70 64 -70 65 69 65 68 0 117 0
117 -60 59 c-33 33 -60 63 -60 67 0 4 27 36 60 71 l60 65 0 112 0 112 -62 69
-62 70 62 62 62 63 0 120 0 120 -63 62 c-34 34 -65 62 -68 62 -2 0 -33 -28
-67 -63z"/>
<path d="M6082 1567 l-62 -63 0 -119 0 -119 61 -62 62 -62 -31 -39 c-16 -21
-44 -51 -61 -67 l-31 -30 0 -116 0 -116 60 -59 c33 -33 60 -64 60 -70 0 -6
-27 -37 -60 -70 l-60 -59 0 -116 1 -115 64 -70 65 -70 65 70 65 70 0 115 0
116 -60 59 c-33 33 -60 63 -60 68 0 5 27 37 60 71 l60 63 0 115 c0 104 -2 117
-21 134 -12 10 -39 41 -62 67 l-40 48 61 62 62 63 0 120 0 120 -63 62 c-34 34
-65 62 -68 62 -2 0 -33 -28 -67 -63z"/>
<path d="M7662 1567 l-62 -63 0 -119 0 -119 62 -63 62 -63 -62 -63 -62 -63 0
-123 0 -123 59 -61 59 -62 -59 -65 -59 -65 0 -120 0 -121 63 -62 63 -62 62 63
62 63 0 124 0 124 -60 61 -60 61 60 59 60 59 0 126 0 126 -60 59 -59 58 59 68
60 67 0 117 0 116 -57 65 c-31 35 -59 64 -63 64 -3 0 -34 -28 -68 -63z"/>
<path d="M9252 1567 l-62 -63 0 -119 0 -119 62 -63 62 -63 -62 -63 -62 -63 0
-125 0 -125 59 -58 60 -59 -60 -65 -59 -65 0 -121 0 -122 63 -62 63 -62 62 63
62 63 0 125 0 125 -60 59 -60 59 60 61 60 61 0 124 0 124 -60 61 -59 60 59 65
59 65 1 118 0 118 -57 65 c-32 35 -60 64 -63 64 -3 0 -34 -28 -68 -63z"/>
<path d="M10861 1564 l-61 -67 0 -113 0 -113 60 -64 c33 -36 60 -69 60 -74 0
-5 -27 -35 -60 -68 l-60 -59 0 -116 0 -116 60 -59 c33 -33 60 -64 60 -70 0 -6
-27 -37 -60 -70 l-60 -59 0 -116 1 -115 65 -69 66 -68 64 63 64 63 0 119 0
119 -60 65 -61 65 61 68 60 68 0 114 0 115 -62 67 -61 67 61 62 62 63 0 120 0
120 -63 62 c-34 34 -65 62 -69 62 -3 0 -34 -30 -67 -66z"/>
<path d="M12451 1565 l-61 -66 0 -115 0 -116 60 -62 c33 -35 60 -67 60 -72 0
-5 -27 -36 -60 -69 l-60 -59 0 -116 0 -116 60 -59 c33 -33 60 -64 60 -70 0 -6
-27 -37 -60 -70 l-60 -59 0 -116 1 -115 65 -70 65 -70 64 66 65 67 0 118 0
117 -61 64 -61 63 40 48 c22 26 49 56 61 66 19 17 21 30 21 135 l0 116 -61 68
-62 68 62 63 61 62 0 120 0 120 -63 62 c-34 34 -65 62 -69 62 -3 0 -33 -29
-67 -65z"/>
<path d="M187 1412 l-57 -79 0 -143 0 -142 48 -66 c26 -36 51 -72 55 -79 5 -9
-11 -39 -47 -89 l-56 -77 0 -145 0 -145 55 -74 c31 -40 57 -73 60 -73 2 0 29
34 60 75 l55 75 0 143 0 143 -55 74 c-30 40 -55 77 -55 81 0 3 25 40 55 82
l55 75 0 142 0 143 -52 71 c-28 39 -54 74 -58 79 -4 4 -32 -28 -63 -71z"/>
<path d="M768 1410 l-58 -77 0 -143 0 -143 55 -73 c30 -40 55 -77 55 -82 0 -5
-25 -42 -55 -82 l-55 -74 0 -143 0 -143 55 -75 c31 -41 58 -75 60 -75 3 0 29
33 60 73 l55 74 0 145 0 145 -55 76 c-30 41 -55 77 -55 79 0 3 25 38 55 78
l55 74 0 146 0 146 -55 74 c-30 40 -56 74 -57 75 -2 2 -29 -32 -60 -75z"/>
<path d="M1777 1412 l-57 -76 0 -146 0 -146 55 -74 c30 -40 55 -75 55 -78 0
-2 -25 -38 -55 -79 l-55 -76 0 -145 0 -145 55 -74 c31 -40 57 -73 59 -73 2 0
29 34 60 75 l56 74 0 144 0 143 -55 74 c-30 40 -55 77 -55 82 0 5 25 42 55 82
l55 73 0 144 -1 144 -58 77 -58 77 -56 -77z"/>
<path d="M2357 1411 l-57 -80 0 -141 0 -142 55 -75 c30 -42 55 -78 55 -82 0
-3 -25 -40 -55 -81 l-55 -75 0 -143 0 -143 55 -75 c30 -40 57 -74 60 -74 2 0
29 33 60 73 l55 74 0 144 0 145 -56 77 c-36 50 -52 81 -47 90 4 7 29 43 56 79
l47 66 0 142 0 143 -57 78 c-31 44 -57 79 -58 79 -1 0 -27 -36 -58 -79z"/>
<path d="M3407 1410 l-57 -79 0 -141 0 -142 55 -75 c30 -42 55 -79 55 -82 0
-4 -25 -41 -55 -81 l-55 -74 0 -143 0 -143 55 -75 c31 -41 58 -75 60 -75 3 0
29 33 60 73 l55 74 0 145 0 145 -56 77 c-36 50 -52 80 -47 89 4 7 29 43 56 79
l47 66 0 144 0 144 -55 74 c-30 40 -56 74 -58 76 -1 2 -29 -32 -60 -76z"/>
<path d="M3988 1411 l-58 -78 0 -142 0 -142 56 -75 c30 -42 53 -82 50 -89 -3
-8 -28 -45 -55 -83 l-51 -70 0 -140 0 -139 56 -77 c30 -42 58 -76 62 -76 4 0
33 37 65 82 l57 82 0 131 0 131 -61 82 -61 82 61 84 61 84 0 132 0 132 -61 84
c-34 46 -62 84 -63 84 0 -1 -27 -36 -58 -79z"/>
<path d="M4997 1411 l-57 -78 0 -143 0 -142 51 -70 c27 -38 52 -75 54 -81 3
-7 -20 -46 -50 -87 l-55 -75 0 -143 0 -143 55 -75 c30 -40 57 -74 60 -74 3 0
30 34 60 74 l55 75 0 143 0 143 -55 75 c-30 41 -53 80 -50 87 2 6 27 43 54 81
l51 70 0 142 0 143 -57 78 c-31 44 -57 79 -58 79 -1 0 -27 -35 -58 -79z"/>
<path d="M5578 1410 l-58 -77 0 -143 0 -143 55 -73 c30 -40 55 -77 55 -81 0
-5 -25 -42 -55 -83 l-55 -75 0 -143 0 -143 56 -74 c31 -41 59 -75 63 -74 3 0
29 33 58 73 l52 73 2 146 1 145 -56 74 c-31 41 -56 77 -56 80 0 2 25 38 55 78
l55 74 0 146 0 146 -55 74 c-30 40 -56 74 -57 75 -2 2 -29 -32 -60 -75z"/>
<path d="M7151 1408 l-61 -83 0 -133 0 -134 60 -84 61 -83 -61 -83 -60 -82 0
-133 0 -133 58 -80 c31 -44 60 -80 64 -80 4 0 32 35 62 77 l56 77 0 139 0 139
-51 70 c-27 38 -52 75 -55 83 -3 8 19 48 50 89 l56 76 0 140 0 140 -59 80 -59
81 -61 -83z"/>
<path d="M8741 1408 l-61 -83 0 -134 0 -134 60 -83 60 -83 -60 -82 -60 -83 0
-134 0 -135 58 -78 c31 -43 60 -78 63 -79 4 0 32 35 63 77 l56 78 0 139 0 139
-55 73 c-30 40 -55 79 -55 85 0 7 25 45 55 85 l55 73 0 141 0 140 -59 80 -59
81 -61 -83z"/>
<path d="M9778 1410 l-58 -77 0 -142 0 -142 55 -74 c30 -41 55 -78 55 -83 0
-4 -25 -41 -55 -82 l-55 -75 0 -143 0 -143 56 -74 c31 -41 59 -75 63 -75 3 1
32 37 64 82 l57 81 0 132 0 131 -61 82 c-38 52 -58 86 -53 94 4 7 32 45 61 84
l53 71 0 133 0 133 -56 76 c-31 42 -60 79 -63 83 -3 3 -32 -29 -63 -72z"/>
<path d="M10358 1409 l-58 -79 0 -140 0 -141 55 -73 c30 -40 55 -78 55 -85 0
-6 -25 -45 -55 -85 l-55 -73 0 -139 0 -139 56 -78 c31 -42 59 -77 63 -77 3 1
32 36 64 79 l57 78 0 136 0 135 -60 82 -61 81 61 83 60 83 0 135 0 134 -56 75
c-30 41 -58 77 -62 80 -4 4 -33 -29 -64 -72z"/>
<path d="M11368 1410 l-58 -77 0 -143 0 -143 55 -73 c30 -40 55 -77 55 -82 0
-5 -25 -42 -55 -82 l-55 -74 0 -143 0 -144 56 -74 c31 -41 58 -75 60 -75 2 0
28 33 58 73 l55 72 2 145 1 144 -56 77 c-31 43 -56 79 -56 82 0 2 25 37 55 77
l55 74 0 146 0 146 -55 74 c-30 40 -56 74 -57 75 -2 2 -29 -32 -60 -75z"/>
<path d="M11948 1409 l-58 -80 0 -139 0 -140 55 -75 c30 -40 55 -78 55 -83 0
-5 -25 -43 -55 -85 l-55 -75 0 -139 0 -139 56 -77 c30 -42 58 -77 62 -77 4 0
33 36 65 80 l57 80 0 133 0 133 -60 82 -61 83 61 83 60 84 0 132 0 133 -57 79
c-32 44 -60 81 -63 83 -3 1 -31 -33 -62 -76z"/>
<path d="M6567 1403 l-57 -77 0 -136 0 -136 55 -75 c31 -41 60 -75 64 -77 5
-2 34 32 65 74 l56 77 0 139 0 139 -56 74 c-31 41 -59 75 -63 75 -4 0 -33 -35
-64 -77z"/>
<path d="M8156 1403 l-56 -78 0 -135 0 -135 56 -78 c31 -42 60 -77 64 -77 5 0
34 35 64 77 l56 77 0 137 0 136 -56 77 c-30 42 -59 76 -64 76 -4 0 -33 -35
-64 -77z"/>
<path d="M6571 811 l-61 -80 0 -136 0 -137 56 -76 c31 -43 60 -77 64 -77 5 0
34 33 64 74 l56 75 0 138 0 139 -59 80 -59 80 -61 -80z"/>
<path d="M8158 809 l-58 -79 0 -136 0 -135 57 -80 c31 -44 60 -78 64 -77 5 2
33 36 64 77 l55 75 0 138 0 138 -57 80 c-32 44 -60 79 -63 79 -3 0 -31 -36
-62 -80z"/>
<path d="M323 378 c-27 -35 -52 -69 -57 -75 -4 -8 14 -40 49 -83 l56 -70 164
0 164 0 55 71 c48 60 54 73 43 88 -6 9 -32 42 -56 74 l-43 57 -163 0 -163 0
-49 -62z"/>
<path d="M1905 368 c-39 -48 -55 -76 -49 -84 5 -7 29 -39 54 -73 l45 -60 167
-1 167 0 55 71 55 71 -56 74 -55 74 -163 0 -162 0 -58 -72z"/>
<path d="M3545 378 c-27 -35 -52 -68 -57 -74 -5 -7 12 -38 47 -83 l56 -71 164
0 164 0 56 71 57 70 -57 75 -57 74 -163 0 -162 0 -48 -62z"/>
<path d="M5134 378 c-26 -35 -51 -68 -56 -74 -5 -7 12 -38 47 -83 l56 -71 164
0 164 0 56 71 c35 45 52 76 47 83 -5 6 -30 39 -57 74 l-48 62 -163 0 -163 0
-47 -62z"/>
<path d="M6705 373 c-27 -36 -52 -70 -53 -75 -2 -4 20 -40 50 -78 l53 -70 166
0 166 0 47 61 c26 33 50 67 53 74 2 8 -19 46 -49 84 l-53 70 -165 0 -165 0
-50 -66z"/>
<path d="M8293 370 c-29 -37 -53 -72 -53 -76 0 -4 23 -38 52 -76 l52 -68 166
0 166 0 53 70 c29 38 51 73 49 78 -1 5 -25 39 -53 75 l-50 66 -165 0 -165 0
-52 -69z"/>
<path d="M9919 383 c-24 -32 -49 -65 -56 -74 -10 -14 -4 -28 43 -88 l55 -71
167 1 167 0 53 70 c33 42 50 74 46 82 -5 6 -30 40 -57 75 l-49 62 -163 0 -163
0 -43 -57z"/>
<path d="M11509 383 c-24 -32 -49 -65 -56 -74 -10 -14 -4 -28 43 -88 l55 -71
167 0 167 1 50 67 c28 37 49 72 49 78 -1 6 -25 41 -54 77 l-52 67 -163 0 -163
0 -43 -57z"/>
</g>
</svg>
